<svg width="90" height="49" viewBox="0 0 90 49" fill="none" xmlns="http://www.w3.org/2000/svg">
<g filter="url(#filter0_d_9_136)">
<path d="M75.1631 0.402344C80.4656 0.402344 84.7753 3.69196 84.7754 7.73926V41.0879C84.7754 45.1352 80.4656 48.4248 75.1631 48.4248H10.5C5.19751 48.4248 0.887695 45.1352 0.887695 41.0879V7.73926C0.887738 3.69197 5.19754 0.402368 10.5 0.402344H75.1631ZM34.9668 27.0811C29.6644 27.0812 25.3545 30.3717 25.3545 34.4189V38.4199C25.3545 39.5244 26.5295 40.4209 27.9766 40.4209H57.6865C59.1336 40.4209 60.3086 39.5244 60.3086 38.4199V34.4189C60.3086 30.3717 55.9987 27.0811 50.6963 27.0811H34.9668ZM42.832 8.40625C37.0508 8.40625 32.3457 11.9974 32.3457 16.4102C32.3459 20.8228 37.0509 24.4141 42.832 24.4141C48.613 24.4139 53.3172 20.8227 53.3174 16.4102C53.3174 11.9975 48.6131 8.40642 42.832 8.40625Z" fill="#B3C0CD"/>
<path d="M84.7754 7.73926L85.2754 7.73926L85.2754 7.73925L84.7754 7.73926ZM10.5 48.4248L10.5 48.9248H10.5V48.4248ZM0.887695 7.73926L0.387695 7.73925V7.73926H0.887695ZM10.5 0.402344L10.5 -0.0976563L10.5 -0.0976562L10.5 0.402344ZM34.9668 27.0811L34.9668 26.5811L34.9668 26.5811L34.9668 27.0811ZM50.6963 27.0811L50.6963 26.5811H50.6963V27.0811ZM42.832 8.40625L42.832 7.90625H42.832V8.40625ZM32.3457 16.4102L31.8457 16.4102L31.8457 16.4102L32.3457 16.4102ZM42.832 24.4141L42.832 24.9141L42.832 24.9141L42.832 24.4141ZM53.3174 16.4102L53.8174 16.4102V16.4102H53.3174ZM75.1631 0.402344V0.902344C77.7143 0.902344 80.0085 1.69429 81.6543 2.95051C83.2998 4.20651 84.2754 5.90487 84.2754 7.73926L84.7754 7.73926L85.2754 7.73925C85.2754 5.52634 84.096 3.55624 82.261 2.15561C80.4263 0.7552 77.9144 -0.0976562 75.1631 -0.0976562V0.402344ZM84.7754 7.73926H84.2754V41.0879H84.7754H85.2754V7.73926H84.7754ZM84.7754 41.0879H84.2754C84.2754 42.9223 83.2998 44.6206 81.6543 45.8766C80.0085 47.1329 77.7143 47.9248 75.1631 47.9248V48.4248V48.9248C77.9144 48.9248 80.4263 48.072 82.261 46.6715C84.0961 45.2709 85.2754 43.3008 85.2754 41.0879H84.7754ZM75.1631 48.4248V47.9248H10.5V48.4248V48.9248H75.1631V48.4248ZM10.5 48.4248L10.5 47.9248C7.94882 47.9248 5.65459 47.1328 4.00878 45.8766C2.36326 44.6206 1.3877 42.9223 1.3877 41.0879H0.887695H0.387695C0.387695 43.3008 1.56704 45.2709 3.40205 46.6715C5.23677 48.0719 7.74869 48.9248 10.5 48.9248L10.5 48.4248ZM0.887695 41.0879H1.3877V7.73926H0.887695H0.387695V41.0879H0.887695ZM0.887695 7.73926L1.3877 7.73926C1.38771 5.90488 2.36329 4.20653 4.00881 2.95053C5.65462 1.69431 7.94884 0.902355 10.5 0.902344L10.5 0.402344L10.5 -0.0976562C7.7487 -0.0976438 5.23679 0.755217 3.40207 2.15563C1.56707 3.55625 0.387719 5.52635 0.387695 7.73925L0.887695 7.73926ZM10.5 0.402344V0.902344H75.1631V0.402344V-0.0976562H10.5V0.402344ZM34.9668 27.0811L34.9668 26.5811C32.2155 26.5811 29.7036 27.4343 27.8689 28.8349C26.0339 30.2358 24.8545 32.2061 24.8545 34.4189H25.3545H25.8545C25.8545 32.5846 26.8301 30.886 28.4757 29.6298C30.1215 28.3733 32.4157 27.5811 34.9668 27.5811L34.9668 27.0811ZM25.3545 34.4189H24.8545V38.4199H25.3545H25.8545V34.4189H25.3545ZM25.3545 38.4199H24.8545C24.8545 39.1613 25.25 39.7975 25.8196 40.2321C26.3887 40.6664 27.1531 40.9209 27.9766 40.9209V40.4209V39.9209C27.3529 39.9209 26.8063 39.7272 26.4262 39.4371C26.0465 39.1474 25.8545 38.783 25.8545 38.4199H25.3545ZM27.9766 40.4209V40.9209H57.6865V40.4209V39.9209H27.9766V40.4209ZM57.6865 40.4209V40.9209C58.51 40.9209 59.2743 40.6664 59.8435 40.2321C60.4131 39.7975 60.8086 39.1613 60.8086 38.4199H60.3086H59.8086C59.8086 38.783 59.6166 39.1474 59.2369 39.4371C58.8568 39.7272 58.3101 39.9209 57.6865 39.9209V40.4209ZM60.3086 38.4199H60.8086V34.4189H60.3086H59.8086V38.4199H60.3086ZM60.3086 34.4189H60.8086C60.8086 32.2061 59.6292 30.2357 57.7943 28.8349C55.9595 27.4342 53.4476 26.5811 50.6963 26.5811L50.6963 27.0811L50.6963 27.5811C53.2474 27.5811 55.5416 28.3733 57.1875 29.6297C58.833 30.886 59.8086 32.5846 59.8086 34.4189H60.3086ZM50.6963 27.0811V26.5811H34.9668V27.0811V27.5811H50.6963V27.0811ZM42.832 8.40625V7.90625C39.8412 7.90625 37.1108 8.83457 35.1175 10.356C33.124 11.8775 31.8457 14.0143 31.8457 16.4102H32.3457H32.8457C32.8457 14.3932 33.9199 12.5281 35.7243 11.1509C37.5288 9.77352 40.0416 8.90625 42.832 8.90625V8.40625ZM32.3457 16.4102L31.8457 16.4102C31.8458 18.8059 33.1241 20.9427 35.1176 22.4643C37.1109 23.9857 39.8413 24.9141 42.832 24.9141V24.4141V23.9141C40.0417 23.9141 37.5289 23.0468 35.7244 21.6694C33.92 20.2922 32.8458 18.427 32.8457 16.4101L32.3457 16.4102ZM42.832 24.4141L42.832 24.9141C45.8227 24.914 48.5528 23.9856 50.5459 22.4642C52.5392 20.9426 53.8173 18.8058 53.8174 16.4102L53.3174 16.4102L52.8174 16.4101C52.8173 18.427 51.7432 20.2921 49.9391 21.6693C48.1348 23.0467 45.6223 23.914 42.832 23.9141L42.832 24.4141ZM53.3174 16.4102H53.8174C53.8174 14.0144 52.5393 11.8777 50.546 10.3561C48.5529 8.83468 45.8228 7.90634 42.832 7.90625L42.832 8.40625L42.832 8.90625C45.6223 8.90633 48.1349 9.77362 49.9392 11.151C51.7433 12.5281 52.8174 14.3933 52.8174 16.4102H53.3174Z" fill="black"/>
</g>
<defs>
<filter id="filter0_d_9_136" x="-3.6123" y="-0.0976562" width="92.8877" height="57.0225" filterUnits="userSpaceOnUse" color-interpolation-filters="sRGB">
<feFlood flood-opacity="0" result="BackgroundImageFix"/>
<feColorMatrix in="SourceAlpha" type="matrix" values="0 0 0 0 0 0 0 0 0 0 0 0 0 0 0 0 0 0 127 0" result="hardAlpha"/>
<feOffset dy="4"/>
<feGaussianBlur stdDeviation="2"/>
<feComposite in2="hardAlpha" operator="out"/>
<feColorMatrix type="matrix" values="0 0 0 0 0 0 0 0 0 0 0 0 0 0 0 0 0 0 0.25 0"/>
<feBlend mode="normal" in2="BackgroundImageFix" result="effect1_dropShadow_9_136"/>
<feBlend mode="normal" in="SourceGraphic" in2="effect1_dropShadow_9_136" result="shape"/>
</filter>
</defs>
</svg>
